<svg width="32" height="32" viewBox="0 0 32 32" fill="none" xmlns="http://www.w3.org/2000/svg">
<path d="M9.33325 24.0003C7.86658 24.0003 6.67992 25.2003 6.67992 26.667C6.67992 28.1337 7.86658 29.3337 9.33325 29.3337C10.7999 29.3337 11.9999 28.1337 11.9999 26.667C11.9999 25.2003 10.7999 24.0003 9.33325 24.0003ZM1.33325 4.00033C1.33325 4.73366 1.93325 5.33366 2.66659 5.33366H3.99992L8.79992 15.4537L6.99992 18.707C6.02659 20.4937 7.30658 22.667 9.33325 22.667H23.9999C24.7332 22.667 25.3333 22.067 25.3333 21.3337C25.3333 20.6003 24.7332 20.0003 23.9999 20.0003H9.33325L10.7999 17.3337H20.7333C21.7333 17.3337 22.6132 16.787 23.0666 15.9603L27.8399 7.30699C28.3333 6.42699 27.6933 5.33366 26.6799 5.33366H6.94659L6.05325 3.42699C5.83992 2.96033 5.35992 2.66699 4.85325 2.66699H2.66659C1.93325 2.66699 1.33325 3.26699 1.33325 4.00033ZM22.6666 24.0003C21.1999 24.0003 20.0133 25.2003 20.0133 26.667C20.0133 28.1337 21.1999 29.3337 22.6666 29.3337C24.1333 29.3337 25.3333 28.1337 25.3333 26.667C25.3333 25.2003 24.1333 24.0003 22.6666 24.0003Z" fill="#3FC1C9"/>
<circle cx="26" cy="6" r="5" fill="#FC5185" stroke="white" stroke-width="2"/>
</svg>
