<svg width="100" height="101" viewBox="0 0 100 101" fill="none" xmlns="http://www.w3.org/2000/svg">
<path d="M69.2195 67.3055H63.2256L60.1119 65.9197V62.1391C64.4715 59.7373 67.8916 55.8334 69.6713 51.1297H72.3424C78.7031 51.1297 83.8781 45.9547 83.8781 39.5939C83.8781 35.4867 81.7188 31.8762 78.4773 29.8318V28.5164C78.4775 12.8139 65.7025 0.0390625 50 0.0390625C34.2975 0.0390625 21.5225 12.8139 21.5225 28.5166V29.8311C18.2803 31.8754 16.1203 35.4861 16.1203 39.5939C16.1203 45.9547 21.2953 51.1297 27.6561 51.1297H30.3285C32.1082 55.8334 35.5283 59.7373 39.8879 62.1391V65.9041L36.7393 67.3053H30.7803C13.808 67.3055 0 81.1137 0 98.0859C0 99.1645 0.874414 100.039 1.95312 100.039H41.2109C42.2896 100.039 43.1641 99.1645 43.1641 98.0859C43.1641 97.0074 42.2896 96.1328 41.2109 96.1328H3.97637C4.9502 82.6352 15.9371 71.8688 29.5264 71.2414C29.5213 71.2578 29.5143 71.2734 29.5096 71.2898C29.3512 71.8465 29.4479 72.4445 29.7732 72.923L39.0125 86.5059C39.3398 86.9871 39.8646 87.2973 40.4439 87.352C40.5053 87.3576 40.5666 87.3605 40.6277 87.3605C41.1432 87.3605 41.6406 87.1564 42.0086 86.7885L49.9826 78.8145L57.9564 86.7885C58.3244 87.1564 58.8221 87.3605 59.3373 87.3605C59.3982 87.3605 59.4596 87.3576 59.5209 87.352C60.1004 87.2973 60.6252 86.9871 60.9525 86.5059L70.192 72.923C70.5174 72.4447 70.6139 71.8463 70.4557 71.2898C70.4508 71.2729 70.4437 71.257 70.4385 71.2402C84.0439 71.8506 95.049 82.6238 96.0236 96.133H58.7891C57.7105 96.133 56.8359 97.0076 56.8359 98.0861C56.8359 99.1646 57.7105 100.039 58.7891 100.039H98.0469C99.1254 100.039 100 99.1646 100 98.0861C100 81.1137 86.192 67.3055 69.2195 67.3055ZM67.0775 30.433C63.0648 29.882 59.2992 28.2832 56.0998 25.752C55.3984 25.1969 54.4092 25.1895 53.6992 25.7342C49.5035 28.9533 44.4844 30.6549 39.1848 30.6549C37.0578 30.6549 34.9605 30.3715 32.9291 29.8209V28.8279C32.9291 19.4154 40.5867 11.7578 49.9992 11.7578C59.4117 11.7578 67.0695 19.4154 67.0695 28.8279C67.0697 28.8279 67.0734 30.3807 67.0775 30.433ZM72.3426 47.2236H71.0229V31.9645H72.3426C76.5496 31.9645 79.9721 35.3869 79.9721 39.5941C79.9721 43.801 76.5496 47.2236 72.3426 47.2236ZM50 3.94531C63.4682 3.94531 74.4383 14.8377 74.5682 28.2758C73.8477 28.1344 73.1039 28.0582 72.3424 28.0582H70.9602C70.5535 16.8471 61.308 7.85156 49.9992 7.85156C38.6904 7.85156 29.4449 16.8471 29.0383 28.0582H27.6563C26.8953 28.0582 26.1521 28.1342 25.4318 28.2756C25.5619 14.8377 36.532 3.94531 50 3.94531ZM28.9758 47.2236H27.6563C23.4492 47.2236 20.0268 43.801 20.0268 39.5939C20.0268 35.3869 23.4492 31.9643 27.6563 31.9643H28.976V47.2236H28.9758ZM32.882 43.7119V33.8408C34.9398 34.3189 37.0502 34.5611 39.1848 34.5611C44.8523 34.5611 50.2451 32.8883 54.8721 29.7086C58.5088 32.2719 62.6928 33.8633 67.1164 34.3738V43.817C67.1053 45.6479 66.8053 47.4113 66.2598 49.0643H56.9328C56.1258 46.7822 53.9477 45.1424 51.393 45.1424H48.7783C45.5389 45.1424 42.9035 47.7779 42.9035 51.0174C42.9035 54.2568 45.5389 56.8924 48.7783 56.8924H51.393C53.9478 56.8924 56.126 55.2525 56.9328 52.9705H64.3914C61.3416 57.6953 56.0301 60.8297 50 60.8297C40.5611 60.8297 32.882 53.1508 32.882 43.7119ZM53.3619 51.0174C53.3619 52.1031 52.4789 52.9861 51.3932 52.9861H48.7785C47.693 52.9861 46.81 52.1031 46.81 51.0174C46.81 49.9316 47.693 49.0486 48.7785 49.0486H51.3932C52.4787 49.0486 53.3619 49.9316 53.3619 51.0174ZM50 64.7359C52.1594 64.7359 54.2434 64.4082 56.2057 63.8008V67.0668L49.9826 73.2898L43.7941 67.1016V63.8008C45.7566 64.4082 47.8406 64.7359 50 64.7359ZM40.915 82.3576L34.3178 72.6588L40.8982 69.7303L47.2203 76.0523L40.915 82.3576ZM59.05 82.3576L52.7447 76.0523L59.0668 69.7303L65.6475 72.6588L59.05 82.3576Z" fill="#3FC1C9"/>
<path d="M50 96.1328C49.4863 96.1328 48.9824 96.3416 48.6191 96.7051C48.2559 97.0684 48.0469 97.5723 48.0469 98.0859C48.0469 98.5996 48.2557 99.1035 48.6191 99.4666C48.9824 99.8299 49.4863 100.039 50 100.039C50.5137 100.039 51.0176 99.8301 51.3807 99.4666C51.7441 99.1035 51.9531 98.5996 51.9531 98.0859C51.9531 97.5723 51.7441 97.0684 51.3807 96.7051C51.0176 96.3416 50.5137 96.1328 50 96.1328Z" fill="#3FC1C9"/>
</svg>
