<svg width="153" height="86" viewBox="0 0 153 86" fill="none" xmlns="http://www.w3.org/2000/svg">
<rect width="153" height="86" fill="#364F6B"/>
<path d="M39.5713 33.1085C43.0726 33.1085 45.8458 34.1485 47.8911 36.2285C49.9711 38.2737 51.0111 41.359 51.0111 45.4843V61.5H42.8992V46.7323C42.8992 44.5136 42.4312 42.867 41.4953 41.7924C40.5939 40.683 39.294 40.1284 37.5953 40.1284C35.6887 40.1284 34.1807 40.7524 33.0714 42.0003C31.9621 43.2137 31.4074 45.0336 31.4074 47.4603V61.5H23.2956V46.7323C23.2956 42.3297 21.5276 40.1284 17.9917 40.1284C16.1197 40.1284 14.6291 40.7524 13.5198 42.0003C12.4104 43.2137 11.8558 45.0336 11.8558 47.4603V61.5H3.74393V33.5245H11.4918V36.7484C12.5318 35.5698 13.7971 34.6685 15.2877 34.0445C16.813 33.4205 18.477 33.1085 20.2796 33.1085C22.2556 33.1085 24.0409 33.5072 25.6355 34.3045C27.2302 35.0671 28.5128 36.1938 29.4835 37.6844C30.6275 36.2285 32.0661 35.1018 33.7994 34.3045C35.5674 33.5072 37.4913 33.1085 39.5713 33.1085ZM57.8858 33.5245H65.9977V61.5H57.8858V33.5245ZM61.9417 29.6246C60.4511 29.6246 59.2378 29.1912 58.3018 28.3246C57.3658 27.4579 56.8978 26.3833 56.8978 25.1006C56.8978 23.818 57.3658 22.7434 58.3018 21.8767C59.2378 21.0101 60.4511 20.5767 61.9417 20.5767C63.4324 20.5767 64.6457 20.9927 65.5817 21.8247C66.5177 22.6567 66.9856 23.6967 66.9856 24.9447C66.9856 26.2966 66.5177 27.4233 65.5817 28.3246C64.6457 29.1912 63.4324 29.6246 61.9417 29.6246ZM90.1336 33.1085C93.6002 33.1085 96.3909 34.1485 98.5055 36.2285C100.655 38.3084 101.729 41.3937 101.729 45.4843V61.5H93.6176V46.7323C93.6176 44.5136 93.1323 42.867 92.1616 41.7924C91.191 40.683 89.787 40.1284 87.9497 40.1284C85.9044 40.1284 84.2751 40.7697 83.0618 42.0523C81.8485 43.3003 81.2418 45.1723 81.2418 47.6682V61.5H73.1299V33.5245H80.8778V36.8004C81.9525 35.6218 83.2871 34.7205 84.8817 34.0965C86.4764 33.4378 88.227 33.1085 90.1336 33.1085ZM122.303 61.916C119.356 61.916 116.704 61.3093 114.347 60.096C112.024 58.848 110.204 57.1321 108.887 54.9481C107.57 52.7642 106.911 50.2855 106.911 47.5122C106.911 44.739 107.57 42.2603 108.887 40.0764C110.204 37.8924 112.024 36.1938 114.347 34.9805C116.704 33.7325 119.356 33.1085 122.303 33.1085C125.249 33.1085 127.884 33.7325 130.207 34.9805C132.529 36.1938 134.349 37.8924 135.666 40.0764C136.984 42.2603 137.642 44.739 137.642 47.5122C137.642 50.2855 136.984 52.7642 135.666 54.9481C134.349 57.1321 132.529 58.848 130.207 60.096C127.884 61.3093 125.249 61.916 122.303 61.916ZM122.303 55.2601C124.383 55.2601 126.081 54.5668 127.399 53.1801C128.751 51.7588 129.427 49.8695 129.427 47.5122C129.427 45.155 128.751 43.283 127.399 41.8964C126.081 40.475 124.383 39.7644 122.303 39.7644C120.223 39.7644 118.507 40.475 117.155 41.8964C115.803 43.283 115.127 45.155 115.127 47.5122C115.127 49.8695 115.803 51.7588 117.155 53.1801C118.507 54.5668 120.223 55.2601 122.303 55.2601ZM145.381 61.916C143.959 61.916 142.763 61.4307 141.793 60.46C140.822 59.4894 140.337 58.2761 140.337 56.8201C140.337 55.3294 140.822 54.1335 141.793 53.2321C142.763 52.2962 143.959 51.8282 145.381 51.8282C146.802 51.8282 147.998 52.2962 148.969 53.2321C149.939 54.1335 150.425 55.3294 150.425 56.8201C150.425 58.2761 149.939 59.4894 148.969 60.46C147.998 61.4307 146.802 61.916 145.381 61.916Z" fill="white"/>
</svg>
