<svg width="23" height="23" viewBox="0 0 23 23" fill="none" xmlns="http://www.w3.org/2000/svg">
<path d="M16.6668 14.6665H15.6134L15.2401 14.3065C16.8401 12.4399 17.6668 9.89319 17.2134 7.18652C16.5868 3.47986 13.4934 0.519858 9.7601 0.0665242C4.1201 -0.626809 -0.626565 4.11986 0.0667684 9.75986C0.520102 13.4932 3.4801 16.5865 7.18677 17.2132C9.89344 17.6665 12.4401 16.8399 14.3068 15.2399L14.6668 15.6132V16.6665L20.3334 22.3332C20.8801 22.8799 21.7734 22.8799 22.3201 22.3332C22.8668 21.7865 22.8668 20.8932 22.3201 20.3465L16.6668 14.6665ZM8.66677 14.6665C5.34677 14.6665 2.66677 11.9865 2.66677 8.66652C2.66677 5.34652 5.34677 2.66652 8.66677 2.66652C11.9868 2.66652 14.6668 5.34652 14.6668 8.66652C14.6668 11.9865 11.9868 14.6665 8.66677 14.6665Z" fill="#3FC1C9"/>
</svg>
