<svg width="253" height="21" viewBox="0 0 253 21" fill="none" xmlns="http://www.w3.org/2000/svg">
<path d="M9.99994 15.1001L13.4583 17.1918C14.0916 17.5751 14.8666 17.0085 14.6999 16.2918L13.7833 12.3585L16.8416 9.70846C17.3999 9.22513 17.0999 8.30846 16.3666 8.25013L12.3416 7.90846L10.7666 4.1918C10.4833 3.5168 9.5166 3.5168 9.23327 4.1918L7.65827 7.90013L3.63327 8.2418C2.89994 8.30013 2.59994 9.2168 3.15827 9.70013L6.2166 12.3501L5.29994 16.2835C5.13327 17.0001 5.90827 17.5668 6.5416 17.1835L9.99994 15.1001Z" fill="#FC5185"/>
<path d="M29.9999 15.1001L33.4583 17.1918C34.0916 17.5751 34.8666 17.0085 34.6999 16.2918L33.7833 12.3585L36.8416 9.70846C37.3999 9.22513 37.0999 8.30846 36.3666 8.25013L32.3416 7.90846L30.7666 4.1918C30.4833 3.5168 29.5166 3.5168 29.2333 4.1918L27.6583 7.90013L23.6333 8.2418C22.8999 8.30013 22.5999 9.2168 23.1583 9.70013L26.2166 12.3501L25.2999 16.2835C25.1333 17.0001 25.9083 17.5668 26.5416 17.1835L29.9999 15.1001Z" fill="#FC5185"/>
<path d="M49.9999 15.1001L53.4583 17.1918C54.0916 17.5751 54.8666 17.0085 54.6999 16.2918L53.7833 12.3585L56.8416 9.70846C57.3999 9.22513 57.0999 8.30846 56.3666 8.25013L52.3416 7.90846L50.7666 4.1918C50.4833 3.5168 49.5166 3.5168 49.2333 4.1918L47.6583 7.90013L43.6333 8.2418C42.8999 8.30013 42.5999 9.2168 43.1583 9.70013L46.2166 12.3501L45.2999 16.2835C45.1333 17.0001 45.9083 17.5668 46.5416 17.1835L49.9999 15.1001Z" fill="#FC5185"/>
<path d="M76.3749 8.03333L72.3416 7.68333L70.7666 3.975C70.4833 3.3 69.5166 3.3 69.2333 3.975L67.6583 7.69167L63.6333 8.03333C62.8999 8.09167 62.5999 9.00833 63.1583 9.49167L66.2166 12.1417L65.2999 16.075C65.1333 16.7917 65.9083 17.3583 66.5416 16.975L69.9999 14.8917L73.4583 16.9833C74.0916 17.3667 74.8666 16.8 74.6999 16.0833L73.7833 12.1417L76.8416 9.49167C77.3999 9.00833 77.1083 8.09167 76.3749 8.03333ZM69.9999 13.3333V5.58333L71.4249 8.95L75.0749 9.26667L72.3083 11.6667L73.1416 15.2333L69.9999 13.3333Z" fill="#FC5185"/>
<path d="M96.3749 8.03333L92.3416 7.68333L90.7666 3.975C90.4833 3.3 89.5166 3.3 89.2333 3.975L87.6583 7.69167L83.6333 8.03333C82.8999 8.09167 82.5999 9.00833 83.1583 9.49167L86.2166 12.1417L85.2999 16.075C85.1333 16.7917 85.9083 17.3583 86.5416 16.975L89.9999 14.8917L93.4583 16.9833C94.0916 17.3667 94.8666 16.8 94.6999 16.0833L93.7833 12.1417L96.8416 9.49167C97.3999 9.00833 97.1083 8.09167 96.3749 8.03333ZM89.9999 13.3333L86.8666 15.225L87.6999 11.6583L84.9333 9.25833L88.5833 8.94167L89.9999 5.58333L91.4249 8.95L95.0749 9.26667L92.3083 11.6667L93.1416 15.2333L89.9999 13.3333Z" fill="#FC5185"/>
</svg>
