<svg width="28" height="28" viewBox="0 0 28 28" fill="none" xmlns="http://www.w3.org/2000/svg">
<path d="M14.0001 0.666992C6.64008 0.666992 0.666748 6.64033 0.666748 14.0003C0.666748 21.3603 6.64008 27.3337 14.0001 27.3337C21.3601 27.3337 27.3334 21.3603 27.3334 14.0003C27.3334 6.64033 21.3601 0.666992 14.0001 0.666992ZM14.0001 4.66699C16.2134 4.66699 18.0001 6.45366 18.0001 8.66699C18.0001 10.8803 16.2134 12.667 14.0001 12.667C11.7867 12.667 10.0001 10.8803 10.0001 8.66699C10.0001 6.45366 11.7867 4.66699 14.0001 4.66699ZM14.0001 23.6003C10.6667 23.6003 7.72008 21.8937 6.00008 19.307C6.04008 16.6537 11.3334 15.2003 14.0001 15.2003C16.6534 15.2003 21.9601 16.6537 22.0001 19.307C20.2801 21.8937 17.3334 23.6003 14.0001 23.6003Z" fill="#3FC1C9"/>
</svg>
